<?xml version="1.0" encoding="iso-8859-1"?>
<!-- Uploaded to: SVG Repo, www.svgrepo.com, Generator: SVG Repo Mixer Tools -->
<svg version="1.1" id="Layer_1" xmlns="http://www.w3.org/2000/svg" xmlns:xlink="http://www.w3.org/1999/xlink" 
	 viewBox="0 0 502 502" xml:space="preserve">
<g>
	<rect x="105.434" y="211.74" style="fill:#D7E6D8;" width="202.947" height="280.261"/>
	<rect x="78.858" y="24.496" style="fill:#4FC497;" width="256.1" height="187.243"/>
	<rect x="380.863" y="78.857" style="fill:#4FC497;" width="42.281" height="89.393"/>
	<rect x="119.134" y="65.569" style="fill:#D7E6D8;" width="175.548" height="105.098"/>
	<path style="fill:#4FC497;" d="M251.309,376.325c0,24.522-19.879,44.402-44.402,44.402s-44.402-19.879-44.402-44.402
		c0-24.522,44.402-87.272,44.402-87.272S251.309,351.803,251.309,376.325z"/>
	<g>
		<path style="fill:#333333;" d="M423.143,68.857h-12.952V33.471l16.399-16.399c3.905-3.905,3.905-10.237,0-14.143
			c-3.906-3.905-10.236-3.905-14.143,0L393.12,22.257c-1.858,1.854-2.931,4.453-2.929,7.076v39.524h-9.328c-5.522,0-10,4.477-10,10
			v89.394c0,5.523,4.478,10,10,10h42.28c5.522,0,10-4.477,10-10V78.857C433.143,73.334,428.665,68.857,423.143,68.857z
			 M413.143,158.251h-22.28V88.857h22.28V158.251z"/>
		<path style="fill:#333333;" d="M401.399,240c-5.522,0-10,4.477-10,10v101.266c0,32.787-26.674,59.461-59.461,59.461h-13.557
			V221.74h16.576c5.522,0,10-4.477,10-10V24.496c0-5.523-4.478-10-10-10h-256.1c-5.523,0-10,4.477-10,10V211.74
			c0,5.523,4.477,10,10,10h16.577V492c0,5.523,4.477,10,10,10h202.947c5.522,0,10-4.477,10-10v-61.273h13.557
			c43.814,0,79.461-35.646,79.461-79.461V250C411.399,244.477,406.921,240,401.399,240z M88.857,201.74V34.496h236.1V201.74H88.857z
			 M298.381,482H115.434V221.74h182.947V482z"/>
		<path style="fill:#333333;" d="M401.399,192c-5.522,0-10,4.477-10,10v16c0,5.523,4.478,10,10,10s10-4.477,10-10v-16
			C411.399,196.477,406.921,192,401.399,192z"/>
		<path style="fill:#333333;" d="M119.134,180.667h175.548c5.522,0,10-4.477,10-10V65.569c0-5.523-4.478-10-10-10H119.134
			c-5.523,0-10,4.477-10,10v105.098C109.134,176.19,113.611,180.667,119.134,180.667z M129.134,75.569h155.548v85.098H129.134
			V75.569z"/>
		<path style="fill:#333333;" d="M206.908,430.727c29.997,0,54.402-24.405,54.402-54.402c0-12.155-7.719-31.103-23.596-57.926
			c-11.179-18.886-22.18-34.469-22.643-35.123c-1.875-2.649-4.918-4.224-8.163-4.224s-6.289,1.575-8.163,4.224
			c-0.463,0.654-11.464,16.237-22.643,35.123c-15.877,26.823-23.596,45.771-23.596,57.926
			C152.506,406.323,176.911,430.727,206.908,430.727z M206.909,306.795c15.718,23.804,34.4,56.379,34.4,69.531
			c0,18.969-15.433,34.402-34.402,34.402s-34.402-15.433-34.402-34.402C172.506,363.187,191.189,330.606,206.909,306.795z"/>
		<path style="fill:#333333;" d="M245,109h-78c-5.523,0-10,4.477-10,10s4.477,10,10,10h78c5.523,0,10-4.477,10-10
			S250.523,109,245,109z"/>
	</g>
</g>
</svg>